<svg width="1920" height="348" viewBox="0 0 1920 348" fill="none" xmlns="http://www.w3.org/2000/svg">
<path d="M1707 107L1716 106.5L1720 109L1732 126.5L1734.5 131.666C1739 147.166 1728 220.5 1728 220.5L1695 243.166L1666.5 204C1666.5 204 1701 108.165 1707 107Z" fill="#FFC20C"/>
<path d="M1707 107L1716 106.5L1720 109L1732 126.5L1734.5 131.666C1739 147.166 1728 220.5 1728 220.5L1695 243.166L1666.5 204C1666.5 204 1701 108.165 1707 107Z" fill="url(#paint0_linear)"/>
<path d="M1707 107L1716 106.5L1720 109L1732 126.5L1734.5 131.666C1739 147.166 1728 220.5 1728 220.5L1695 243.166L1666.5 204C1666.5 204 1701 108.165 1707 107Z" stroke="#66500E" stroke-width="6" stroke-linecap="round" stroke-linejoin="round"/>
<g filter="url(#filter0_b)">
<rect x="1642" y="198" width="135" height="58" fill="white" fill-opacity="0.8"/>
</g>
<path d="M1699 196.5C1691.5 184 1673.4 157.7 1661 152.5C1648.6 147.3 1633.83 183.667 1628 200.5L1617 198.5M1699 196.5L1680.25 224.087C1675.33 231.331 1673.82 240.364 1676.12 248.815L1685 281.5L1675.5 287.5M1699 196.5L1719.29 108M1722.5 94L1719.29 108M1719.29 108L1737.69 134.996C1746.93 148.565 1751.12 164.954 1749.5 181.295L1748 196.5M1719.29 108L1690.77 105.064C1671.76 103.107 1654.37 93.4601 1642.65 78.3629L1628 59.5" stroke="black" stroke-width="8" stroke-linecap="round" stroke-linejoin="round"/>
<path d="M1623.76 7.60075L1625.7 14.5654L1632.33 13.6919L1633.59 4.6738L1623.76 7.60075Z" fill="#FFB600"/>
<circle cx="1637.3" cy="30.594" r="4.33307" transform="rotate(0.665202 1637.3 30.594)" fill="#625FA6"/>
<path fill-rule="evenodd" clip-rule="evenodd" d="M1615.84 41.1489L1639.05 41.4184C1638.74 42.166 1638.64 43.008 1638.8 43.8615C1639.24 46.2134 1641.51 47.7616 1643.86 47.3194C1646.21 46.8773 1647.76 44.6123 1647.32 42.2604C1647.27 42.0006 1647.2 41.7506 1647.11 41.5119L1658.22 41.6409L1658.16 46.0834C1658.03 57.7855 1648.43 67.1618 1636.73 67.026C1625.03 66.8901 1615.65 57.2935 1615.79 45.5914L1615.84 41.1489ZM1629.95 55.0855C1631.41 54.8113 1632.37 53.4064 1632.1 51.9476C1631.82 50.4889 1630.42 49.5286 1628.96 49.8028C1627.5 50.0771 1626.54 51.4819 1626.81 52.9407C1627.09 54.3995 1628.49 55.3597 1629.95 55.0855Z" fill="#625FA6"/>
<path fill-rule="evenodd" clip-rule="evenodd" d="M1623.24 5.4465C1622.84 5.52218 1622.49 5.76324 1622.27 6.11103C1622.06 6.45883 1621.99 6.88147 1622.1 7.27613L1623.97 13.9967L1622.7 14.2363C1621.91 14.3855 1621.38 15.15 1621.53 15.9439C1621.68 16.7378 1622.45 17.2604 1623.24 17.1112L1624.16 16.9387C1624.64 22.1422 1623.07 27.1413 1620.04 31.0473C1619.91 31.196 1619.79 31.3463 1619.66 31.4981L1619.66 31.4982C1617.93 33.6142 1616.58 36.0307 1615.69 38.6328C1614.46 42.2617 1614.1 46.2752 1614.86 50.3121C1617.21 62.796 1629.23 71.0138 1641.71 68.667C1654.2 66.3202 1662.41 54.2976 1660.07 41.8137C1659.19 37.142 1656.96 33.0677 1653.85 29.9209C1652.45 28.5029 1650.88 27.2732 1649.17 26.262C1648.87 26.0854 1648.57 25.9155 1648.26 25.7524C1644 23.2161 1640.7 19.1348 1639.25 14.1017L1640.58 13.8516C1641.37 13.7024 1641.9 12.9378 1641.75 12.1439C1641.6 11.35 1640.83 10.8275 1640.04 10.9767L1638.57 11.2534L1637.87 4.31243C1637.83 3.90483 1637.62 3.53308 1637.29 3.28764C1636.96 3.0422 1636.55 2.94558 1636.14 3.02126L1623.24 5.4465ZM1625.35 8.02701L1626.86 13.4366L1635.68 11.7776L1635.12 6.19059L1625.35 8.02701ZM1622.11 33.1346C1623.77 31.0538 1625.08 28.6898 1625.94 26.1494C1626.99 23.0916 1627.4 19.7785 1627.04 16.3962L1636.36 14.6443C1637.26 17.9169 1638.84 20.8503 1640.92 23.3176C1642.55 25.2512 1644.48 26.8987 1646.62 28.199C1647.06 28.46 1647.49 28.707 1647.94 28.9395C1652.61 31.7993 1656.1 36.5481 1657.19 42.3541C1659.24 53.2502 1652.07 63.7438 1641.17 65.7921C1630.28 67.8404 1619.78 60.6678 1617.73 49.7717C1616.61 43.793 1618.26 37.9356 1621.78 33.5279C1621.89 33.398 1622 33.2669 1622.11 33.1346Z" fill="black"/>
<rect x="1694" y="36" width="70" height="70" rx="35" fill="white" stroke="black" stroke-width="8"/>
<rect x="1697" y="49" width="11" height="11" rx="5.5" fill="black"/>
<rect x="1718" y="59" width="11" height="11" rx="5.5" fill="black"/>
<defs>
<filter id="filter0_b" x="1632" y="188" width="155" height="78" filterUnits="userSpaceOnUse" color-interpolation-filters="sRGB">
<feFlood flood-opacity="0" result="BackgroundImageFix"/>
<feGaussianBlur in="BackgroundImage" stdDeviation="5"/>
<feComposite in2="SourceAlpha" operator="in" result="effect1_backgroundBlur"/>
<feBlend mode="normal" in="SourceGraphic" in2="effect1_backgroundBlur" result="shape"/>
</filter>
<linearGradient id="paint0_linear" x1="1727.5" y1="155.5" x2="1711.5" y2="170.5" gradientUnits="userSpaceOnUse">
<stop stop-opacity="0.04"/>
<stop offset="1" stop-opacity="0"/>
</linearGradient>
</defs>
</svg>
